<?xml version="1.0" encoding="UTF-8" standalone="no"?>
<!-- Created with Inkscape (http://www.inkscape.org/) -->

<svg
   xmlns:dc="http://purl.org/dc/elements/1.1/"
   xmlns:cc="http://creativecommons.org/ns#"
   xmlns:rdf="http://www.w3.org/1999/02/22-rdf-syntax-ns#"
   xmlns:svg="http://www.w3.org/2000/svg"
   xmlns="http://www.w3.org/2000/svg"
   xmlns:sodipodi="http://sodipodi.sourceforge.net/DTD/sodipodi-0.dtd"
   xmlns:inkscape="http://www.inkscape.org/namespaces/inkscape"
   width="58.716331mm"
   height="18.415001mm"
   viewBox="0 0 208.04999 65.250003"
   id="svg5757"
   version="1.1"
   inkscape:version="0.91 r13725"
   sodipodi:docname="FormulaDeltaL.svg">
  <defs
     id="defs5759" />
  <sodipodi:namedview
     id="base"
     pagecolor="#ffffff"
     bordercolor="#666666"
     borderopacity="1.0"
     inkscape:pageopacity="0.0"
     inkscape:pageshadow="2"
     inkscape:zoom="2.8"
     inkscape:cx="85.065972"
     inkscape:cy="38.166856"
     inkscape:document-units="px"
     inkscape:current-layer="layer1"
     showgrid="false"
     fit-margin-top="0"
     fit-margin-left="0"
     fit-margin-right="0"
     fit-margin-bottom="0"
     inkscape:window-width="1366"
     inkscape:window-height="706"
     inkscape:window-x="-8"
     inkscape:window-y="-8"
     inkscape:window-maximized="1" />
  <metadata
     id="metadata5762">
    <rdf:RDF>
      <cc:Work
         rdf:about="">
        <dc:format>image/svg+xml</dc:format>
        <dc:type
           rdf:resource="http://purl.org/dc/dcmitype/StillImage" />
        <dc:title></dc:title>
      </cc:Work>
    </rdf:RDF>
  </metadata>
  <g
     inkscape:label="Capa 1"
     inkscape:groupmode="layer"
     id="layer1"
     transform="translate(-227.40357,-365.45149)">
    <path
       d="m 232.80357,383.90149 -0.3,0 -4.05,8.4 8.4,0 -4.05,-8.4 z m -0.45,1.65 3,6.15 -6,0 3,-6.15 z"
       style="fill:#000000;fill-opacity:1;fill-rule:nonzero;stroke:none"
       id="path2222"
       inkscape:connector-curvature="0" />
    <path
       d="m 243.45357,383.90149 -3.45,0 0,0.3 c 0.6,0 1.05,0.15 1.05,0.45 0,0.3 -0.15,0.6 -0.15,0.9 l -1.65,5.7 c -0.15,0.75 -0.3,0.75 -0.9,0.9 l 0,0.15 6.45,0 0.6,-2.25 -0.15,-0.15 c -0.9,1.95 -1.95,1.95 -3.45,1.95 -0.75,0 -1.35,0 -1.2,-0.6 l 0,-0.45 1.65,-5.7 c 0.15,-0.75 0.75,-0.9 1.2,-0.9 l 0,-0.3 z"
       style="fill:#000000;fill-opacity:1;fill-rule:nonzero;stroke:none"
       id="path2224"
       inkscape:connector-curvature="0" />
    <g
       transform="matrix(1.25,0,0,-1.25,-74.396429,567.35149)"
       id="g2226">
      <g
         id="g2228"
         transform="matrix(15.24,0,0,0.48,241.44,135.12)">
        <rect
           x="0"
           y="0"
           width="1"
           height="1"
           transform="matrix(1,0,0,-1,0,1)"
           style="fill:#000000;fill-opacity:1;fill-rule:nonzero"
           id="rect2230" />
      </g>
    </g>
    <path
       d="m 239.25357,408.95149 c -0.45,0.6 -0.6,1.05 -0.9,1.05 -0.15,0 -0.3,-0.15 -0.3,-0.3 0.15,-0.3 1.05,-3.6 1.05,-4.05 0,-0.75 -0.6,-0.75 -0.75,-0.75 -1.2,0 -2.4,1.8 -2.85,2.55 l 0,-0.15 1.5,-5.55 -0.15,-0.15 c -0.6,0.3 -1.35,0.3 -1.95,0.45 l 0,0.15 0.3,0 c 0.45,0 0.6,0.15 0.6,0.3 0,0.15 -0.3,1.05 -0.45,1.5 l -1.65,6.45 1.05,0 c 0.3,-1.65 0.6,-2.4 1.05,-3.15 0.3,-0.45 1.35,-1.8 2.1,-1.8 0.15,0 0.3,0.15 0.3,0.3 0,0.15 -1.05,3.9 -1.05,4.2 0,0.3 0.15,0.6 0.45,0.6 0.9,0 1.35,-0.9 1.8,-1.5 l -0.15,-0.15 z"
       style="fill:#000000;fill-opacity:1;fill-rule:nonzero;stroke:none"
       id="path2232"
       inkscape:connector-curvature="0" />
    <path
       d="m 260.70357,397.25149 0,-0.6 -8.4,0 0,0.6 8.4,0 z m 0,2.7 0,-0.6 -8.4,0 0,0.6 8.4,0 z"
       style="fill:#000000;fill-opacity:1;fill-rule:nonzero;stroke:none"
       id="path2234"
       inkscape:connector-curvature="0" />
    <path
       d="m 268.05357,393.05149 c 1.65,0 1.8,3.15 1.8,4.05 0,1.05 -0.15,4.05 -1.8,4.05 -1.5,0 -1.65,-3 -1.65,-4.05 0,-0.9 0.15,-4.05 1.65,-4.05 z m 0,-0.3 c -2.25,0 -2.7,2.85 -2.7,4.35 0,1.5 0.45,4.35 2.7,4.35 2.4,0 2.85,-2.85 2.85,-4.35 0,-1.5 -0.45,-4.35 -2.85,-4.35 z"
       style="fill:#000000;fill-opacity:1;fill-rule:nonzero;stroke:none"
       id="path2236"
       inkscape:connector-curvature="0" />
    <path
       d="m 273.90357,400.70149 c 0,-0.3 -0.3,-0.6 -0.75,-0.6 -0.45,0 -0.75,0.3 -0.75,0.6 0,0.45 0.3,0.75 0.75,0.75 0.45,0 0.75,-0.3 0.75,-0.75 z"
       style="fill:#000000;fill-opacity:1;fill-rule:nonzero;stroke:none"
       id="path2238"
       inkscape:connector-curvature="0" />
    <path
       d="m 280.95357,398.45149 -1.35,0 0,-5.7 -0.45,0 -4.05,5.7 0,0.75 3.6,0 0,2.1 0.9,0 0,-2.1 1.35,0 0,-0.75 z m -2.25,0 -3.3,0 3.15,-4.35 0.15,0 0,4.35 z"
       style="fill:#000000;fill-opacity:1;fill-rule:nonzero;stroke:none"
       id="path2240"
       inkscape:connector-curvature="0" />
    <path
       d="m 282.75357,401.30149 3.45,0 0,-0.15 c -0.9,0 -1.2,-0.15 -1.2,-0.75 l 0,-7.65 -0.15,0 -2.25,1.2 0,0.15 c 0.75,-0.3 0.75,-0.3 0.9,-0.3 0.45,0 0.45,0.3 0.45,0.6 l 0,5.7 c 0,1.05 -0.45,1.05 -1.2,1.05 l 0,0.15 z"
       style="fill:#000000;fill-opacity:1;fill-rule:nonzero;stroke:none"
       id="path2242"
       inkscape:connector-curvature="0" />
    <path
       d="m 293.70357,399.65149 -0.15,-0.15 c -0.6,0.9 -0.75,0.9 -1.2,0.9 l -3,0 2.1,-2.25 c 0.6,-0.6 1.5,-1.8 1.5,-3.15 0,-1.35 -1.05,-2.25 -2.25,-2.25 -1.05,0 -2.25,0.6 -2.7,2.55 l 0.3,0 c 0.3,-0.6 0.75,-1.65 1.8,-1.65 1.5,0 1.95,1.2 1.95,1.8 0,1.05 -0.6,2.1 -1.8,3.3 l -2.25,2.4 0,0.15 4.95,0 0.75,-1.65 z"
       style="fill:#000000;fill-opacity:1;fill-rule:nonzero;stroke:none"
       id="path2244"
       inkscape:connector-curvature="0" />
    <path
       d="m 299.85357,375.20149 c -2.1,1.2 -3.15,3.3 -3.15,5.4 0,3 1.65,4.65 3,5.55 l 0.15,-0.15 c -2.1,-1.5 -2.1,-4.2 -2.1,-5.55 0,-3.3 1.2,-4.2 2.1,-4.95 l 0,-0.3 z"
       style="fill:#000000;fill-opacity:1;fill-rule:nonzero;stroke:none"
       id="path2246"
       inkscape:connector-curvature="0" />
    <path
       d="m 304.80357,381.35149 0.15,-0.6 -3.15,0 c 0.3,-0.75 1.5,-2.25 3.15,-2.25 0.15,0 0.3,0 0.3,0 l 0.15,-0.45 -0.15,0 c -1.2,0 -2.4,0.45 -3,0.9 -1.2,0.75 -1.5,1.8 -1.5,2.7 0,1.2 1.2,2.4 2.7,2.4 0.6,0 0.9,-0.15 1.05,-0.15 l 0,-0.6 c -0.15,0.15 -0.6,0.3 -0.9,0.3 -1.35,0 -1.95,-0.9 -1.95,-1.95 0,-0.15 0,-0.15 0,-0.3 l 3.15,0 z"
       style="fill:#000000;fill-opacity:1;fill-rule:nonzero;stroke:none"
       id="path2248"
       inkscape:connector-curvature="0" />
    <path
       d="m 306.60357,385.10149 c 0,0.45 -0.15,0.6 -0.75,0.6 l 0,0.15 2.25,0 0,-0.15 c -0.6,0 -0.9,0 -0.9,-0.6 l 0,-2.1 c 0,-0.3 0.45,-0.75 0.6,-0.75 0.3,0 0.45,0.3 0.75,0.3 0.15,0 0.3,-0.15 0.3,-0.45 0,-0.3 -0.15,-0.45 -0.45,-0.45 -0.45,0 -0.75,0.15 -1.05,0.9 l -0.15,0 0,-0.9 c -0.45,0.3 -0.9,0.45 -1.35,0.6 l 0,0.15 c 0.15,0 0.3,0 0.3,0 0.15,0 0.45,0 0.45,0.6 l 0,2.1 z"
       style="fill:#000000;fill-opacity:1;fill-rule:nonzero;stroke:none"
       id="path2250"
       inkscape:connector-curvature="0" />
    <path
       d="m 312.45357,384.50149 c -0.15,0.3 -0.6,0.9 -1.35,0.9 -0.6,0 -1.35,-0.3 -1.5,-1.95 l 2.85,0 c -0.15,-1.35 -0.75,-1.8 -1.65,-1.8 -0.6,0 -1.65,0.6 -1.65,2.4 0,1.2 0.6,1.95 1.5,1.95 1.35,0 1.8,-1.2 1.95,-1.5 l -0.15,0 z m -2.7,-1.35 c 0.15,-0.9 0.45,-1.2 0.9,-1.2 0.75,0 0.75,0.75 0.9,1.2 l -1.8,0 z"
       style="fill:#000000;fill-opacity:1;fill-rule:nonzero;stroke:none"
       id="path2252"
       inkscape:connector-curvature="0" />
    <path
       d="m 315.45357,381.80149 -1.05,0 0,-1.05 c 0,-0.3 0,-0.75 0.45,-0.75 0.45,0 0.6,0.6 0.9,0.6 0.15,0 0.45,0 0.45,-0.3 0,-0.3 -0.45,-0.6 -0.9,-0.6 -1.65,0 -1.65,1.65 -1.65,2.1 l -0.75,0 0,0.3 0.75,0 0,2.85 c 0,0.75 -0.15,0.75 -0.75,0.75 l 0,0.15 2.25,0 0,-0.15 c -0.75,0 -0.75,-0.15 -0.75,-0.75 l 0,-2.85 1.05,0 0,-0.3 z"
       style="fill:#000000;fill-opacity:1;fill-rule:nonzero;stroke:none"
       id="path2254"
       inkscape:connector-curvature="0" />
    <path
       d="m 318.30357,381.80149 -1.05,0 0,-1.05 c 0,-0.3 0,-0.75 0.45,-0.75 0.45,0 0.6,0.6 0.9,0.6 0.15,0 0.45,0 0.45,-0.3 0,-0.3 -0.45,-0.6 -0.9,-0.6 -1.65,0 -1.65,1.65 -1.65,2.1 l -0.75,0 0,0.3 0.75,0 0,2.85 c 0,0.75 -0.15,0.75 -0.75,0.75 l 0,0.15 2.25,0 0,-0.15 c -0.75,0 -0.75,-0.15 -0.75,-0.75 l 0,-2.85 1.05,0 0,-0.3 z"
       style="fill:#000000;fill-opacity:1;fill-rule:nonzero;stroke:none"
       id="path2256"
       inkscape:connector-curvature="0" />
    <path
       d="m 327.30357,380.45149 0,-4.05 -0.6,0 0,4.05 -3.9,0 0,0.6 3.9,0 0,3.9 0.6,0 0,-3.9 3.9,0 0,-0.6 -3.9,0 z"
       style="fill:#000000;fill-opacity:1;fill-rule:nonzero;stroke:none"
       id="path2258"
       inkscape:connector-curvature="0" />
    <path
       d="m 337.95357,375.65149 c 1.65,0 1.8,3.15 1.8,4.05 0,1.05 -0.15,4.05 -1.8,4.05 -1.5,0 -1.65,-3 -1.65,-4.05 0,-0.9 0.15,-4.05 1.65,-4.05 z m 0,-0.3 c -2.25,0 -2.7,2.85 -2.7,4.35 0,1.5 0.45,4.35 2.7,4.35 2.4,0 2.85,-2.85 2.85,-4.35 0,-1.5 -0.45,-4.35 -2.85,-4.35 z"
       style="fill:#000000;fill-opacity:1;fill-rule:nonzero;stroke:none"
       id="path2260"
       inkscape:connector-curvature="0" />
    <path
       d="m 343.80357,383.30149 c 0,-0.3 -0.3,-0.6 -0.75,-0.6 -0.45,0 -0.75,0.3 -0.75,0.6 0,0.45 0.3,0.75 0.75,0.75 0.45,0 0.75,-0.3 0.75,-0.75 z"
       style="fill:#000000;fill-opacity:1;fill-rule:nonzero;stroke:none"
       id="path2262"
       inkscape:connector-curvature="0" />
    <path
       d="m 346.80357,379.70149 c 0.9,0 1.2,0 1.65,0.3 0.9,0.45 1.05,1.35 1.05,1.65 0,1.05 -0.6,1.95 -1.8,1.95 -0.75,0 -1.2,-0.75 -1.8,-0.75 -0.15,0 -0.45,0.15 -0.45,0.45 0,0.75 1.05,0.75 1.35,0.75 1.95,0 3.45,-1.05 3.45,-2.85 0,-1.65 -1.05,-2.1 -1.5,-2.4 0.75,-0.45 1.05,-1.05 1.05,-1.8 0,-0.45 -0.3,-1.65 -1.95,-1.65 -0.9,0 -1.95,0.45 -2.55,2.1 l 0.3,0 c 0.15,-0.3 0.75,-1.35 1.8,-1.35 1.05,0 1.5,0.75 1.5,1.35 0,1.2 -1.05,1.8 -2.1,2.1 l 0,0.15 z"
       style="fill:#000000;fill-opacity:1;fill-rule:nonzero;stroke:none"
       id="path2264"
       inkscape:connector-curvature="0" />
    <path
       d="m 351.60357,386.15149 c 2.1,-1.2 3.15,-3.15 3.15,-5.25 0,-3.15 -1.65,-4.8 -3,-5.7 l -0.15,0.3 c 2.1,1.35 2.1,4.2 2.1,5.4 0,3.3 -1.2,4.35 -2.1,5.1 l 0,0.15 z"
       style="fill:#000000;fill-opacity:1;fill-rule:nonzero;stroke:none"
       id="path2266"
       inkscape:connector-curvature="0" />
    <path
       d="m 366.30357,395.75149 c -3.9,-3.9 -4.8,-9 -4.8,-15 0,-6 0.9,-11.1 4.8,-15.15 l -0.15,-0.15 c -3.9,3.3 -6.15,8.4 -6.15,15.3 0,6.75 2.25,12 6.15,15.3 l 0.15,-0.3 z"
       style="fill:#000000;fill-opacity:1;fill-rule:nonzero;stroke:none"
       id="path2268"
       inkscape:connector-curvature="0" />
    <path
       d="m 379.95357,366.65149 -2.4,0 0,0.15 c 0.6,0.15 0.9,0.15 0.9,0.6 0,0.3 -0.3,0.75 -0.3,0.75 l -2.25,4.65 -0.15,0 -0.45,-5.1 c -0.15,-0.75 0.3,-0.75 0.9,-0.9 l 0,-0.15 -3.15,0 0,0.15 c 0.75,0 0.9,0.15 1.05,0.75 l 0,0.9 -2.1,4.35 -0.15,-0.45 -0.45,-4.65 c 0,-0.75 0.3,-0.75 0.9,-0.9 l 0,-0.15 -3,0 0,0.15 c 0.75,0.15 0.75,0.15 1.05,1.8 l 0.75,6.6 0.3,0 2.85,-5.85 0.6,5.85 0.3,0 3.9,-7.5 c 0.3,-0.6 0.45,-0.75 0.9,-0.9 l 0,-0.15 z"
       style="fill:#000000;fill-opacity:1;fill-rule:nonzero;stroke:none"
       id="path2270"
       inkscape:connector-curvature="0" />
    <g
       transform="matrix(1.25,0,0,-1.25,-74.396429,567.35149)"
       id="g2272">
      <g
         id="g2274"
         transform="matrix(10.08,0,0,0.48,354,149.04)">
        <rect
           x="0"
           y="0"
           width="1"
           height="1"
           transform="matrix(1,0,0,-1,0,1)"
           style="fill:#000000;fill-opacity:1;fill-rule:nonzero"
           id="rect2276" />
      </g>
    </g>
    <path
       d="m 376.80357,391.55149 c -0.45,0.6 -0.75,1.05 -0.9,1.05 -0.15,0 -0.45,-0.15 -0.45,-0.3 0.15,-0.3 1.05,-3.6 1.05,-4.05 0,-0.75 -0.45,-0.75 -0.75,-0.75 -1.05,0 -2.4,1.8 -2.85,2.55 l 0,-0.15 1.5,-5.55 0,-0.15 c -0.75,0.3 -1.35,0.3 -1.95,0.45 l 0,0.15 0.3,0 c 0.45,0 0.45,0.15 0.45,0.3 0,0.15 -0.15,1.05 -0.3,1.5 l -1.65,6.45 0.9,0 c 0.45,-1.65 0.6,-2.4 1.2,-3.15 0.3,-0.45 1.35,-1.8 1.95,-1.8 0.15,0 0.45,0.15 0.45,0.3 0,0.15 -1.05,3.9 -1.05,4.2 0,0.3 0.15,0.6 0.45,0.6 0.9,0 1.35,-0.9 1.8,-1.5 l -0.15,-0.15 z"
       style="fill:#000000;fill-opacity:1;fill-rule:nonzero;stroke:none"
       id="path2278"
       inkscape:connector-curvature="0" />
    <path
       d="m 390.30357,380.45149 0,-4.05 -0.6,0 0,4.05 -3.9,0 0,0.6 3.9,0 0,3.9 0.6,0 0,-3.9 3.9,0 0,-0.6 -3.9,0 z"
       style="fill:#000000;fill-opacity:1;fill-rule:nonzero;stroke:none"
       id="path2280"
       inkscape:connector-curvature="0" />
    <path
       d="m 400.95357,375.65149 c 1.65,0 1.8,3.15 1.8,4.05 0,1.05 -0.15,4.05 -1.8,4.05 -1.5,0 -1.65,-3 -1.65,-4.05 0,-0.9 0.15,-4.05 1.65,-4.05 z m 0,-0.3 c -2.25,0 -2.7,2.85 -2.7,4.35 0,1.5 0.45,4.35 2.7,4.35 2.4,0 2.85,-2.85 2.85,-4.35 0,-1.5 -0.45,-4.35 -2.85,-4.35 z"
       style="fill:#000000;fill-opacity:1;fill-rule:nonzero;stroke:none"
       id="path2282"
       inkscape:connector-curvature="0" />
    <path
       d="m 406.80357,383.30149 c 0,-0.3 -0.3,-0.6 -0.75,-0.6 -0.45,0 -0.75,0.3 -0.75,0.6 0,0.45 0.3,0.75 0.75,0.75 0.45,0 0.75,-0.3 0.75,-0.75 z"
       style="fill:#000000;fill-opacity:1;fill-rule:nonzero;stroke:none"
       id="path2284"
       inkscape:connector-curvature="0" />
    <path
       d="m 413.85357,382.25149 -0.15,-0.15 c -0.6,0.9 -0.75,0.9 -1.2,0.9 l -3,0 2.1,-2.25 c 0.6,-0.6 1.5,-1.8 1.5,-3.15 0,-1.35 -1.05,-2.25 -2.25,-2.25 -1.05,0 -2.25,0.6 -2.7,2.55 l 0.3,0 c 0.3,-0.6 0.75,-1.65 1.8,-1.65 1.5,0 1.95,1.2 1.95,1.8 0,1.05 -0.6,2.1 -1.8,3.3 l -2.25,2.4 0,0.15 4.95,0 0.75,-1.65 z"
       style="fill:#000000;fill-opacity:1;fill-rule:nonzero;stroke:none"
       id="path2286"
       inkscape:connector-curvature="0" />
    <path
       d="m 419.70357,375.20149 c -3,0.15 -5.1,2.4 -5.1,5.1 0,2.55 1.35,3.75 2.85,3.75 2.1,0 2.55,-1.95 2.55,-2.85 0,-1.65 -0.9,-2.7 -2.25,-2.7 -0.75,0 -0.9,0.15 -1.65,0.6 0.3,-1.65 1.5,-3.3 3.6,-3.75 l 0,-0.15 z m -2.4,3.9 c 1.35,0 1.65,1.2 1.65,2.55 0,1.5 -0.6,2.1 -1.35,2.1 -0.9,0 -1.8,-0.9 -1.8,-3 0,-0.75 0.15,-1.05 0.3,-1.2 0.3,-0.3 0.75,-0.45 1.2,-0.45 z"
       style="fill:#000000;fill-opacity:1;fill-rule:nonzero;stroke:none"
       id="path2288"
       inkscape:connector-curvature="0" />
    <path
       d="m 426.60357,381.05149 -1.35,0 0,-5.7 -0.45,0 -4.05,5.7 0,0.75 3.6,0 0,2.1 0.9,0 0,-2.1 1.35,0 0,-0.75 z m -2.25,0 -3.3,0 3.15,-4.35 0.15,0 0,4.35 z"
       style="fill:#000000;fill-opacity:1;fill-rule:nonzero;stroke:none"
       id="path2290"
       inkscape:connector-curvature="0" />
    <path
       d="m 427.35357,396.05149 c 3.9,-3.3 6.15,-8.55 6.15,-15.3 0,-6.9 -2.25,-12 -6.15,-15.3 l -0.15,0.15 c 3.9,4.05 4.8,9.15 4.8,15.15 0,6 -0.9,11.1 -4.8,15 l 0.15,0.3 z"
       style="fill:#000000;fill-opacity:1;fill-rule:nonzero;stroke:none"
       id="path2292"
       inkscape:connector-curvature="0" />
    <g
       transform="matrix(1.25,0,0,-1.25,-74.396429,567.35149)"
       id="g2294">
      <g
         id="g2296"
         transform="matrix(111.96,0,0,0.48,295.92,135.12)">
        <rect
           x="0"
           y="0"
           width="1"
           height="1"
           transform="matrix(1,0,0,-1,0,1)"
           style="fill:#000000;fill-opacity:1;fill-rule:nonzero"
           id="rect2298" />
      </g>
    </g>
    <path
       d="m 299.85357,410.00149 c -2.1,1.2 -3.15,3.15 -3.15,5.25 0,3.15 1.65,4.8 3,5.7 l 0.15,-0.3 c -2.1,-1.35 -2.1,-4.2 -2.1,-5.55 0,-3.15 1.2,-4.2 2.1,-4.95 l 0,-0.15 z"
       style="fill:#000000;fill-opacity:1;fill-rule:nonzero;stroke:none"
       id="path2300"
       inkscape:connector-curvature="0" />
    <path
       d="m 304.80357,416.15149 0.15,-0.6 -3.15,0 c 0.3,-0.75 1.5,-2.25 3.15,-2.25 0.15,0 0.3,0 0.3,0 l 0.15,-0.45 -0.15,0 c -1.2,0 -2.4,0.3 -3,0.75 -1.2,0.75 -1.5,1.8 -1.5,2.7 0,1.35 1.2,2.55 2.7,2.55 0.6,0 0.9,-0.3 1.05,-0.3 l 0,-0.45 c -0.15,0.15 -0.6,0.3 -0.9,0.3 -1.35,0 -1.95,-1.05 -1.95,-2.1 0,0 0,-0.15 0,-0.15 l 3.15,0 z"
       style="fill:#000000;fill-opacity:1;fill-rule:nonzero;stroke:none"
       id="path2302"
       inkscape:connector-curvature="0" />
    <path
       d="m 306.60357,419.90149 c 0,0.45 -0.15,0.45 -0.75,0.6 l 0,0.15 2.25,0 0,-0.15 c -0.6,0 -0.9,-0.15 -0.9,-0.75 l 0,-2.1 c 0,-0.3 0.45,-0.75 0.6,-0.75 0.3,0 0.45,0.3 0.75,0.3 0.15,0 0.3,-0.15 0.3,-0.3 0,-0.3 -0.15,-0.45 -0.45,-0.45 -0.45,0 -0.75,0.15 -1.05,0.75 l -0.15,0 0,-0.75 c -0.45,0.3 -0.9,0.45 -1.35,0.6 l 0,0.15 c 0.15,0 0.3,0 0.3,0 0.15,0 0.45,0 0.45,0.45 l 0,2.25 z"
       style="fill:#000000;fill-opacity:1;fill-rule:nonzero;stroke:none"
       id="path2304"
       inkscape:connector-curvature="0" />
    <path
       d="m 312.45357,419.15149 c -0.15,0.45 -0.6,1.05 -1.35,1.05 -0.6,0 -1.35,-0.45 -1.5,-2.1 l 2.85,0 c -0.15,-1.35 -0.75,-1.65 -1.65,-1.65 -0.6,0 -1.65,0.45 -1.65,2.25 0,1.35 0.6,2.1 1.5,2.1 1.35,0 1.8,-1.2 1.95,-1.5 l -0.15,-0.15 z m -2.7,-1.2 c 0.15,-1.05 0.45,-1.35 0.9,-1.35 0.75,0 0.75,0.75 0.9,1.35 l -1.8,0 z"
       style="fill:#000000;fill-opacity:1;fill-rule:nonzero;stroke:none"
       id="path2306"
       inkscape:connector-curvature="0" />
    <path
       d="m 315.45357,416.60149 -1.05,0 0,-1.05 c 0,-0.45 0,-0.9 0.45,-0.9 0.45,0 0.6,0.75 0.9,0.75 0.15,0 0.45,-0.15 0.45,-0.45 0,-0.3 -0.45,-0.45 -0.9,-0.45 -1.65,0 -1.65,1.5 -1.65,2.1 l -0.75,0 0,0.15 0.75,0 0,2.85 c 0,0.75 -0.15,0.9 -0.75,0.9 l 0,0.15 2.25,0 0,-0.15 c -0.75,0 -0.75,-0.3 -0.75,-0.9 l 0,-2.85 1.05,0 0,-0.15 z"
       style="fill:#000000;fill-opacity:1;fill-rule:nonzero;stroke:none"
       id="path2308"
       inkscape:connector-curvature="0" />
    <path
       d="m 318.30357,416.60149 -1.05,0 0,-1.05 c 0,-0.45 0,-0.9 0.45,-0.9 0.45,0 0.6,0.75 0.9,0.75 0.15,0 0.45,-0.15 0.45,-0.45 0,-0.3 -0.45,-0.45 -0.9,-0.45 -1.65,0 -1.65,1.5 -1.65,2.1 l -0.75,0 0,0.15 0.75,0 0,2.85 c 0,0.75 -0.15,0.9 -0.75,0.9 l 0,0.15 2.25,0 0,-0.15 c -0.75,0 -0.75,-0.3 -0.75,-0.9 l 0,-2.85 1.05,0 0,-0.15 z"
       style="fill:#000000;fill-opacity:1;fill-rule:nonzero;stroke:none"
       id="path2310"
       inkscape:connector-curvature="0" />
    <path
       d="m 323.10357,415.10149 7.8,0 0,0.75 -7.8,0 0,-0.75 z"
       style="fill:#000000;fill-opacity:1;fill-rule:nonzero;stroke:none"
       id="path2312"
       inkscape:connector-curvature="0" />
    <path
       d="m 337.95357,410.45149 c 1.65,0 1.8,3.15 1.8,4.05 0,0.9 -0.15,3.9 -1.8,3.9 -1.5,0 -1.65,-3 -1.65,-3.9 0,-0.9 0.15,-4.05 1.65,-4.05 z m 0,-0.3 c -2.25,0 -2.7,2.85 -2.7,4.35 0,1.5 0.45,4.2 2.7,4.2 2.4,0 2.85,-2.7 2.85,-4.2 0,-1.5 -0.45,-4.35 -2.85,-4.35 z"
       style="fill:#000000;fill-opacity:1;fill-rule:nonzero;stroke:none"
       id="path2314"
       inkscape:connector-curvature="0" />
    <path
       d="m 343.80357,418.10149 c 0,-0.45 -0.3,-0.75 -0.75,-0.75 -0.45,0 -0.75,0.3 -0.75,0.75 0,0.45 0.3,0.75 0.75,0.75 0.45,0 0.75,-0.3 0.75,-0.75 z"
       style="fill:#000000;fill-opacity:1;fill-rule:nonzero;stroke:none"
       id="path2316"
       inkscape:connector-curvature="0" />
    <path
       d="m 350.85357,416.90149 -0.15,0 c -0.6,0.75 -0.75,0.75 -1.2,0.75 l -3,0 2.1,-2.25 c 0.6,-0.6 1.5,-1.65 1.5,-3 0,-1.5 -1.05,-2.25 -2.25,-2.25 -1.05,0 -2.25,0.6 -2.7,2.4 l 0.3,0.15 c 0.3,-0.75 0.75,-1.65 1.8,-1.65 1.5,0 1.95,1.2 1.95,1.8 0,0.9 -0.6,2.1 -1.8,3.3 l -2.25,2.25 0,0.15 4.95,0 0.75,-1.65 z"
       style="fill:#000000;fill-opacity:1;fill-rule:nonzero;stroke:none"
       id="path2318"
       inkscape:connector-curvature="0" />
    <path
       d="m 353.40357,411.20149 2.55,0 c 0.15,0 0.15,0 0.3,0 l 0.45,-1.2 -0.15,-0.15 c -0.15,0.3 -0.15,0.45 -0.6,0.45 l -2.55,0 -1.5,3 c 0,0 0,0.15 0.15,0.15 1.35,0 3.6,0.6 3.6,2.7 0,1.5 -0.9,2.25 -1.8,2.25 -0.6,0 -1.05,-0.9 -1.8,-0.9 -0.6,0 -0.6,0.45 -0.6,0.6 0,0.45 0.6,0.6 1.65,0.6 2.1,0 3.45,-1.2 3.45,-2.85 0,-1.2 -0.15,-1.5 -0.75,-2.25 -0.75,-0.9 -1.95,-1.05 -2.85,-1.2 l 0.45,-1.2 z"
       style="fill:#000000;fill-opacity:1;fill-rule:nonzero;stroke:none"
       id="path2320"
       inkscape:connector-curvature="0" />
    <path
       d="m 360.15357,414.65149 c 1.65,1.05 2.25,1.5 2.25,2.4 0,0.9 -0.75,1.35 -1.5,1.35 -1.05,0 -1.8,-0.75 -1.8,-1.8 0,-1.05 0.75,-1.65 1.05,-1.95 z m -1.8,2.1 c 0,1.05 0.75,1.95 2.25,1.95 2.25,0 2.55,-1.35 2.55,-1.95 0,-0.9 -0.15,-1.65 -1.8,-2.85 0.6,-0.3 1.5,-0.9 1.5,-2.1 0,-0.9 -0.75,-1.65 -2.25,-1.65 -1.05,0 -2.25,0.6 -2.25,1.95 0,0.9 0.45,1.35 1.5,2.4 -1.05,0.75 -1.5,1.2 -1.5,2.25 z m 0.75,-5.1 c 0,-0.6 0.45,-1.2 1.5,-1.2 1.05,0 1.5,0.6 1.5,1.35 0,1.05 -0.75,1.65 -1.35,1.95 -0.45,-0.3 -1.65,-1.05 -1.65,-2.1 z"
       style="fill:#000000;fill-opacity:1;fill-rule:nonzero;stroke:none"
       id="path2322"
       inkscape:connector-curvature="0" />
    <path
       d="m 364.35357,420.95149 c 2.1,-1.35 3.15,-3.3 3.15,-5.4 0,-3.15 -1.65,-4.65 -3,-5.55 l -0.15,0.15 c 2.1,1.35 2.1,4.2 2.1,5.55 0,3.15 -1.2,4.2 -2.1,4.95 l 0,0.3 z"
       style="fill:#000000;fill-opacity:1;fill-rule:nonzero;stroke:none"
       id="path2324"
       inkscape:connector-curvature="0" />
    <path
       d="m 379.05357,430.40149 c -3.9,-3.9 -4.8,-9 -4.8,-15 0,-6 0.9,-11.1 4.8,-15 l -0.15,-0.3 c -3.9,3.3 -6.15,8.55 -6.15,15.3 0,6.9 2.25,12 6.15,15.3 l 0.15,-0.3 z"
       style="fill:#000000;fill-opacity:1;fill-rule:nonzero;stroke:none"
       id="path2326"
       inkscape:connector-curvature="0" />
    <path
       d="m 392.70357,401.30149 -2.25,0 0,0.3 c 0.45,0 0.75,0 0.75,0.45 0,0.3 -0.15,0.75 -0.3,0.9 l -2.25,4.5 0,0 -0.6,-4.95 c 0,-0.75 0.3,-0.9 0.9,-0.9 l 0,-0.3 -3,0 0,0.3 c 0.75,0 0.9,0.15 0.9,0.75 l 0.15,0.9 -2.25,4.2 0,-0.3 -0.45,-4.65 c -0.15,-0.75 0.15,-0.9 0.9,-0.9 l 0,-0.3 -3,0 0,0.3 c 0.75,0 0.75,0 0.9,1.65 l 0.9,6.6 0.15,0 2.85,-5.7 0.15,0 0.6,5.7 0.3,0 3.75,-7.35 c 0.45,-0.6 0.6,-0.75 1.05,-0.9 l -0.15,-0.3 z"
       style="fill:#000000;fill-opacity:1;fill-rule:nonzero;stroke:none"
       id="path2328"
       inkscape:connector-curvature="0" />
    <g
       transform="matrix(1.25,0,0,-1.25,-74.396429,567.35149)"
       id="g2330">
      <g
         id="g2332"
         transform="matrix(10.08,0,0,0.48,364.2,121.2)">
        <rect
           x="0"
           y="0"
           width="1"
           height="1"
           transform="matrix(1,0,0,-1,0,1)"
           style="fill:#000000;fill-opacity:1;fill-rule:nonzero"
           id="rect2334" />
      </g>
    </g>
    <path
       d="m 389.55357,426.20149 c -0.45,0.75 -0.75,1.05 -0.9,1.05 -0.15,0 -0.45,0 -0.45,-0.15 0.15,-0.45 1.05,-3.6 1.05,-4.05 0,-0.75 -0.45,-0.9 -0.75,-0.9 -1.05,0 -2.4,1.95 -2.85,2.55 l 0,0 1.5,-5.7 c -0.75,0.15 -1.35,0.3 -1.95,0.3 l 0,0.15 0.3,0 c 0.45,0 0.45,0.3 0.45,0.45 0,0.15 -0.15,0.9 -0.3,1.5 l -1.65,6.3 0.9,0 c 0.45,-1.65 0.6,-2.25 1.2,-3.15 0.3,-0.3 1.35,-1.8 1.95,-1.8 0.15,0 0.45,0.15 0.45,0.45 0,0.15 -1.05,3.75 -1.05,4.05 0,0.3 0.15,0.6 0.45,0.6 0.9,0 1.35,-0.75 1.8,-1.5 l -0.15,-0.15 z"
       style="fill:#000000;fill-opacity:1;fill-rule:nonzero;stroke:none"
       id="path2336"
       inkscape:connector-curvature="0" />
    <path
       d="m 403.05357,415.25149 0,-4.05 -0.6,0 0,4.05 -3.9,0 0,0.6 3.9,0 0,3.9 0.6,0 0,-3.9 3.9,0 0,-0.6 -3.9,0 z"
       style="fill:#000000;fill-opacity:1;fill-rule:nonzero;stroke:none"
       id="path2338"
       inkscape:connector-curvature="0" />
    <path
       d="m 413.70357,410.45149 c 1.65,0 1.8,3.15 1.8,4.05 0,0.9 -0.15,3.9 -1.8,3.9 -1.5,0 -1.65,-3 -1.65,-3.9 0,-0.9 0.15,-4.05 1.65,-4.05 z m 0,-0.3 c -2.25,0 -2.7,2.85 -2.7,4.35 0,1.5 0.45,4.2 2.7,4.2 2.4,0 2.85,-2.7 2.85,-4.2 0,-1.5 -0.45,-4.35 -2.85,-4.35 z"
       style="fill:#000000;fill-opacity:1;fill-rule:nonzero;stroke:none"
       id="path2340"
       inkscape:connector-curvature="0" />
    <path
       d="m 419.55357,418.10149 c 0,-0.45 -0.3,-0.75 -0.75,-0.75 -0.45,0 -0.75,0.3 -0.75,0.75 0,0.45 0.3,0.75 0.75,0.75 0.45,0 0.75,-0.3 0.75,-0.75 z"
       style="fill:#000000;fill-opacity:1;fill-rule:nonzero;stroke:none"
       id="path2342"
       inkscape:connector-curvature="0" />
    <path
       d="m 423.15357,414.65149 c 1.65,1.05 2.25,1.5 2.25,2.4 0,0.9 -0.75,1.35 -1.5,1.35 -1.05,0 -1.8,-0.75 -1.8,-1.8 0,-1.05 0.75,-1.65 1.05,-1.95 z m -1.8,2.1 c 0,1.05 0.75,1.95 2.25,1.95 2.25,0 2.55,-1.35 2.55,-1.95 0,-0.9 -0.15,-1.65 -1.8,-2.85 0.6,-0.3 1.5,-0.9 1.5,-2.1 0,-0.9 -0.75,-1.65 -2.25,-1.65 -1.05,0 -2.25,0.6 -2.25,1.95 0,0.9 0.45,1.35 1.5,2.4 -1.05,0.75 -1.5,1.2 -1.5,2.25 z m 0.75,-5.1 c 0,-0.6 0.45,-1.2 1.5,-1.2 1.05,0 1.5,0.6 1.5,1.35 0,1.05 -0.75,1.65 -1.35,1.95 -0.45,-0.3 -1.65,-1.05 -1.65,-2.1 z"
       style="fill:#000000;fill-opacity:1;fill-rule:nonzero;stroke:none"
       id="path2344"
       inkscape:connector-curvature="0" />
    <path
       d="m 427.35357,430.70149 c 3.9,-3.3 6.15,-8.4 6.15,-15.3 0,-6.75 -2.25,-12 -6.15,-15.3 l -0.15,0.3 c 3.9,3.9 4.8,9 4.8,15 0,6 -0.9,11.1 -4.8,15 l 0.15,0.3 z"
       style="fill:#000000;fill-opacity:1;fill-rule:nonzero;stroke:none"
       id="path2346"
       inkscape:connector-curvature="0" />
  </g>
</svg>
