<?xml version="1.0" encoding="UTF-8" standalone="no"?>
<!-- Created with Inkscape (http://www.inkscape.org/) -->

<svg
   xmlns:dc="http://purl.org/dc/elements/1.1/"
   xmlns:cc="http://creativecommons.org/ns#"
   xmlns:rdf="http://www.w3.org/1999/02/22-rdf-syntax-ns#"
   xmlns:svg="http://www.w3.org/2000/svg"
   xmlns="http://www.w3.org/2000/svg"
   xmlns:sodipodi="http://sodipodi.sourceforge.net/DTD/sodipodi-0.dtd"
   xmlns:inkscape="http://www.inkscape.org/namespaces/inkscape"
   width="210mm"
   height="297mm"
   viewBox="0 0 744.09448819 1052.3622047"
   id="svg2"
   version="1.1"
   inkscape:version="0.91 r13725"
   sodipodi:docname="ImagenesVarias.svg">
  <defs
     id="defs4">
    <marker
       inkscape:stockid="Arrow1Mend"
       orient="auto"
       refY="0"
       refX="0"
       id="marker4983"
       style="overflow:visible"
       inkscape:isstock="true">
      <path
         inkscape:connector-curvature="0"
         id="path4985"
         d="M 0,0 5,-5 -12.5,0 5,5 0,0 Z"
         style="fill:#000000;fill-opacity:1;fill-rule:evenodd;stroke:#000000;stroke-width:1pt;stroke-opacity:1"
         transform="matrix(-0.4,0,0,-0.4,-4,0)" />
    </marker>
    <marker
       inkscape:stockid="Arrow2Mend"
       orient="auto"
       refY="0.0"
       refX="0.0"
       id="marker4716"
       style="overflow:visible;"
       inkscape:isstock="true">
      <path
         id="path4487"
         style="fill-rule:evenodd;stroke-width:0.625;stroke-linejoin:round;stroke:#000000;stroke-opacity:1;fill:#000000;fill-opacity:1"
         d="M 8.7185878,4.0337352 L -2.2072895,0.016013256 L 8.7185884,-4.0017078 C 6.9730900,-1.6296469 6.9831476,1.6157441 8.7185878,4.0337352 z "
         transform="scale(0.6) rotate(180) translate(0,0)" />
    </marker>
    <marker
       inkscape:isstock="true"
       style="overflow:visible"
       id="marker8590"
       refX="0"
       refY="0"
       orient="auto"
       inkscape:stockid="Arrow1Mstart">
      <path
         transform="matrix(0.4,0,0,0.4,4,0)"
         style="fill:#ff0000;fill-opacity:1;fill-rule:evenodd;stroke:#ff0000;stroke-width:1pt;stroke-opacity:1"
         d="M 0,0 5,-5 -12.5,0 5,5 0,0 Z"
         id="path8592"
         inkscape:connector-curvature="0" />
    </marker>
    <marker
       inkscape:isstock="true"
       style="overflow:visible"
       id="marker8538"
       refX="0"
       refY="0"
       orient="auto"
       inkscape:stockid="Arrow1Mend"
       inkscape:collect="always">
      <path
         transform="matrix(-0.4,0,0,-0.4,-4,0)"
         style="fill:#000000;fill-opacity:1;fill-rule:evenodd;stroke:#000000;stroke-width:1pt;stroke-opacity:1"
         d="M 0,0 5,-5 -12.5,0 5,5 0,0 Z"
         id="path8540"
         inkscape:connector-curvature="0" />
    </marker>
    <marker
       inkscape:isstock="true"
       style="overflow:visible"
       id="marker8504"
       refX="0"
       refY="0"
       orient="auto"
       inkscape:stockid="Arrow1Mend">
      <path
         transform="matrix(-0.4,0,0,-0.4,-4,0)"
         style="fill:#000000;fill-opacity:1;fill-rule:evenodd;stroke:#000000;stroke-width:1pt;stroke-opacity:1"
         d="M 0,0 5,-5 -12.5,0 5,5 0,0 Z"
         id="path8506"
         inkscape:connector-curvature="0" />
    </marker>
    <marker
       inkscape:stockid="Arrow1Mend"
       orient="auto"
       refY="0"
       refX="0"
       id="Arrow1Mend"
       style="overflow:visible"
       inkscape:isstock="true"
       inkscape:collect="always">
      <path
         inkscape:connector-curvature="0"
         id="path6782"
         d="M 0,0 5,-5 -12.5,0 5,5 0,0 Z"
         style="fill:#000000;fill-opacity:1;fill-rule:evenodd;stroke:#000000;stroke-width:1pt;stroke-opacity:1"
         transform="matrix(-0.4,0,0,-0.4,-4,0)" />
    </marker>
    <marker
       inkscape:stockid="Arrow1Mstart"
       orient="auto"
       refY="0"
       refX="0"
       id="Arrow1Mstart"
       style="overflow:visible"
       inkscape:isstock="true"
       inkscape:collect="always">
      <path
         inkscape:connector-curvature="0"
         id="path6779"
         d="M 0,0 5,-5 -12.5,0 5,5 0,0 Z"
         style="fill:#000000;fill-opacity:1;fill-rule:evenodd;stroke:#000000;stroke-width:1pt;stroke-opacity:1"
         transform="matrix(0.4,0,0,0.4,4,0)" />
    </marker>
  </defs>
  <sodipodi:namedview
     id="base"
     pagecolor="#ffffff"
     bordercolor="#666666"
     borderopacity="1.0"
     inkscape:pageopacity="0.0"
     inkscape:pageshadow="2"
     inkscape:zoom="1.4"
     inkscape:cx="69.824654"
     inkscape:cy="763.32916"
     inkscape:document-units="px"
     inkscape:current-layer="layer1"
     showgrid="true"
     inkscape:window-width="1366"
     inkscape:window-height="706"
     inkscape:window-x="-8"
     inkscape:window-y="-8"
     inkscape:window-maximized="1">
    <inkscape:grid
       type="xygrid"
       id="grid7934" />
  </sodipodi:namedview>
  <metadata
     id="metadata7">
    <rdf:RDF>
      <cc:Work
         rdf:about="">
        <dc:format>image/svg+xml</dc:format>
        <dc:type
           rdf:resource="http://purl.org/dc/dcmitype/StillImage" />
        <dc:title />
      </cc:Work>
    </rdf:RDF>
  </metadata>
  <g
     inkscape:label="Capa 1"
     inkscape:groupmode="layer"
     id="layer1">
    <path
       d="m 388.41785,144.62464 14.4,0 0,13.35 -14.4,0 0,-13.35 z"
       style="fill:#ffffff;fill-opacity:1;fill-rule:nonzero;stroke:none"
       id="path5370"
       inkscape:connector-curvature="0" />
    <path
       d="m 264.06785,68.424644 14.4,0 0,13.349999 -14.4,0 0,-13.349999 z"
       style="fill:#ffffff;fill-opacity:1;fill-rule:nonzero;stroke:none"
       id="path5374"
       inkscape:connector-curvature="0" />
    <path
       d="m 216.81785,163.82464 0,9.75 -58.94999,0 0,49.5 227.54999,0 0,-138.299997 -227.54999,0 0,45.749997 58.94999,0 0,10.65 -114.59999,0 c 0,0 0.75,3.6 0.75,4.5 0,0.9 -1.05,2.85 -1.05,4.5 0,1.65 1.2,3.15 1.05,4.65 0,1.5 -0.6,2.85 -0.75,4.5 -0.15,1.5 0.75,4.5 0.75,4.5 l 113.84999,0 z"
       style="fill:#c87137;fill-opacity:1;fill-rule:nonzero;stroke:none"
       id="path5438"
       inkscape:connector-curvature="0" />
    <g
       id="g5440"
       transform="matrix(0.15,0,0,0.15,-168.23215,-291.42536)">
      <path
         d="m 2567,3035 0,65 -393,0 0,330 1517,0 0,-922 -1517,0 0,305 393,0 0,71 -764,0 c 0,0 5,24 5,30 0,6 -7,19 -7,30 0,11 8,21 7,31 0,10 -4,19 -5,30 -1,10 5,30 5,30 l 759,0 z"
         style="fill:none;stroke:#000000;stroke-width:6;stroke-linecap:butt;stroke-linejoin:miter;stroke-miterlimit:4;stroke-dasharray:none;stroke-opacity:1"
         id="path5442"
         inkscape:connector-curvature="0" />
    </g>
    <g
       id="g5488"
       transform="matrix(0.10466659,0,0,0.11574474,-27.696586,-195.3028)">
      <path
         d="m 1771,5332 0,-34 m 109,34 0,-34 m 109,34 0,-34 m 108,34 0,-34 m 109,34 0,-34 m 109,34 0,-34 m 109,34 0,-34 m 108,34 0,-34 m 109,34 0,-34 m 109,34 0,-34 m 109,34 0,-34 m 109,34 0,-34 m 108,34 0,-34 m 109,34 0,-34 m 109,34 0,-34 m 109,34 0,-34 m 108,34 0,-34 m 109,34 0,-34 m 109,34 0,-34 m 109,34 0,-34 m -2067,-1380 0,-34 m 109,34 0,-34 m 109,34 0,-34 m 108,34 0,-34 m 109,34 0,-34 m 109,34 0,-34 m 109,34 0,-34 m 108,34 0,-34 m 109,34 0,-34 m 109,34 0,-34 m 109,34 0,-34 m 109,34 0,-34 m 108,34 0,-34 m 109,34 0,-34 m 109,34 0,-34 m 109,34 0,-34 m 108,34 0,-34 m 109,34 0,-34 m 109,34 0,-34 m 109,34 0,-34 m 108,34 0,-34 m -2173,1265 34,0 m -34,-180 34,0 m -34,-180 34,0 m -34,-181 34,0 m -34,-180 34,0 m -34,-180 34,0 m -34,-180 34,0 m 2103,1081 34,0 m -34,-180 34,0 m -34,-180 34,0 m -34,-181 34,0 m -34,-180 34,0 m -34,-180 34,0 m -34,-180 34,0"
         style="fill:none;stroke:#000000;stroke-width:5;stroke-linecap:butt;stroke-linejoin:miter;stroke-miterlimit:4;stroke-dasharray:none;stroke-opacity:1"
         id="path5490"
         inkscape:connector-curvature="0" />
    </g>
    <g
       id="g5492"
       transform="matrix(0.10466659,0,0,0.11574474,-27.696586,-195.3028)"
       style="stroke:#000000;stroke-width:19.0793972;stroke-miterlimit:4;stroke-dasharray:none;stroke-opacity:1">
      <path
         d="m 1771,5333 2174,0 0,-1450 -2174,0 0,1450 z"
         style="fill:none;stroke:#000000;stroke-width:19.0793972;stroke-linecap:butt;stroke-linejoin:miter;stroke-miterlimit:4;stroke-dasharray:none;stroke-opacity:1"
         id="path5494"
         inkscape:connector-curvature="0" />
    </g>
    <g
       id="g5598"
       transform="matrix(0.10466659,0,0,0.11574474,-27.696586,-195.3028)">
      <path
         d="m 1772,3886 c 349,0 699,1439 1086,1439 M 3945,3886 c -350,0 -699,1439 -1087,1439"
         style="fill:#ffffff;stroke:#ff0000;stroke-width:27.53792953;stroke-linecap:butt;stroke-linejoin:miter;stroke-miterlimit:4;stroke-dasharray:none;stroke-opacity:1"
         id="path5600"
         inkscape:connector-curvature="0" />
    </g>
    <text
       xml:space="preserve"
       style="font-style:normal;font-variant:normal;font-weight:normal;font-stretch:normal;font-size:40px;line-height:125%;font-family:'Arial Rounded MT Bold';-inkscape-font-specification:'Arial Rounded MT Bold, ';letter-spacing:0px;word-spacing:0px;fill:#000000;fill-opacity:1;stroke:none;stroke-width:1px;stroke-linecap:butt;stroke-linejoin:miter;stroke-opacity:1"
       x="-405.87457"
       y="119.49658"
       id="text6658"
       sodipodi:linespacing="125%"
       transform="matrix(0.01147061,-0.99993421,0.99993421,0.01147061,0,0)"><tspan
         sodipodi:role="line"
         id="tspan6660"
         x="-405.87457"
         y="119.49658"
         style="font-style:normal;font-variant:normal;font-weight:normal;font-stretch:normal;font-size:15px;font-family:'Arial Rounded MT Bold';-inkscape-font-specification:'Arial Rounded MT Bold, '">R<tspan
   style="font-size:64.99999762%;baseline-shift:sub"
   id="tspan4238">in</tspan>(y=y<tspan
   style="font-size:64.99999762%;baseline-shift:sub"
   id="tspan4232">0</tspan>) / R<tspan
   style="font-size:64.99999762%;baseline-shift:sub"
   id="tspan4236">in</tspan>(y = 0)</tspan></text>
    <text
       xml:space="preserve"
       style="font-style:normal;font-variant:normal;font-weight:normal;font-stretch:normal;font-size:40px;line-height:125%;font-family:'Arial Rounded MT Bold';-inkscape-font-specification:'Arial Rounded MT Bold, ';letter-spacing:0px;word-spacing:0px;fill:#000000;fill-opacity:1;stroke:none;stroke-width:1px;stroke-linecap:butt;stroke-linejoin:miter;stroke-opacity:1"
       x="256.62518"
       y="459.20731"
       id="text6672"
       sodipodi:linespacing="125%"><tspan
         sodipodi:role="line"
         id="tspan6674"
         x="256.62518"
         y="459.20731"
         style="font-size:15px">y<tspan
   style="font-size:64.99999762%;baseline-shift:sub"
   id="tspan4228">0 </tspan>/ L</tspan></text>
    <text
       xml:space="preserve"
       style="font-style:normal;font-variant:normal;font-weight:normal;font-stretch:normal;font-size:40px;line-height:125%;font-family:'Arial Rounded MT Bold';-inkscape-font-specification:'Arial Rounded MT Bold, ';letter-spacing:0px;word-spacing:0px;fill:#000000;fill-opacity:1;stroke:none;stroke-width:1px;stroke-linecap:butt;stroke-linejoin:miter;stroke-opacity:1"
       x="144.51512"
       y="259.79755"
       id="text6672-4"
       sodipodi:linespacing="125%"><tspan
         sodipodi:role="line"
         id="tspan6674-7"
         x="144.51512"
         y="259.79755"
         style="font-size:15px">1</tspan></text>
    <text
       xml:space="preserve"
       style="font-style:normal;font-variant:normal;font-weight:normal;font-stretch:normal;font-size:40px;line-height:125%;font-family:'Arial Rounded MT Bold';-inkscape-font-specification:'Arial Rounded MT Bold, ';letter-spacing:0px;word-spacing:0px;fill:#000000;fill-opacity:1;stroke:none;stroke-width:1px;stroke-linecap:butt;stroke-linejoin:miter;stroke-opacity:1"
       x="260.22943"
       y="439.43027"
       id="text6672-8"
       sodipodi:linespacing="125%"><tspan
         sodipodi:role="line"
         id="tspan6674-1"
         x="260.22943"
         y="439.43027"
         style="font-size:15px">0.5</tspan></text>
    <text
       xml:space="preserve"
       style="font-style:normal;font-variant:normal;font-weight:normal;font-stretch:normal;font-size:40px;line-height:125%;font-family:'Arial Rounded MT Bold';-inkscape-font-specification:'Arial Rounded MT Bold, ';letter-spacing:0px;word-spacing:0px;fill:#000000;fill-opacity:1;stroke:none;stroke-width:1px;stroke-linecap:butt;stroke-linejoin:miter;stroke-opacity:1"
       x="142.84253"
       y="426.32355"
       id="text6672-14"
       sodipodi:linespacing="125%"><tspan
         sodipodi:role="line"
         id="tspan6674-15"
         x="142.84253"
         y="426.32355"
         style="font-size:15px">0</tspan></text>
    <text
       xml:space="preserve"
       style="font-style:normal;font-variant:normal;font-weight:normal;font-stretch:normal;font-size:40px;line-height:125%;font-family:'Arial Rounded MT Bold';-inkscape-font-specification:'Arial Rounded MT Bold, ';letter-spacing:0px;word-spacing:0px;fill:#000000;fill-opacity:1;stroke:none;stroke-width:1px;stroke-linecap:butt;stroke-linejoin:miter;stroke-opacity:1"
       x="380.3237"
       y="438.48386"
       id="text6672-4-0"
       sodipodi:linespacing="125%"><tspan
         sodipodi:role="line"
         id="tspan6674-7-5"
         x="380.3237"
         y="438.48386"
         style="font-size:15px">1</tspan></text>
    <text
       xml:space="preserve"
       style="font-style:normal;font-variant:normal;font-weight:normal;font-stretch:normal;font-size:40px;line-height:125%;font-family:'Arial Rounded MT Bold';-inkscape-font-specification:'Arial Rounded MT Bold, ';letter-spacing:0px;word-spacing:0px;fill:#000000;fill-opacity:1;stroke:none;stroke-width:1px;stroke-linecap:butt;stroke-linejoin:miter;stroke-opacity:1"
       x="129.11549"
       y="343.18936"
       id="text6672-8-6"
       sodipodi:linespacing="125%"><tspan
         sodipodi:role="line"
         id="tspan6674-1-3"
         x="129.11549"
         y="343.18936"
         style="font-size:15px">0.5</tspan></text>
    <text
       xml:space="preserve"
       style="font-style:normal;font-variant:normal;font-weight:normal;font-stretch:normal;font-size:40px;line-height:125%;font-family:'Arial Rounded MT Bold';-inkscape-font-specification:'Arial Rounded MT Bold, ';letter-spacing:0px;word-spacing:0px;fill:#000000;fill-opacity:1;stroke:none;stroke-width:1px;stroke-linecap:butt;stroke-linejoin:miter;stroke-opacity:1"
       x="153.67349"
       y="439.56549"
       id="text6672-14-3"
       sodipodi:linespacing="125%"><tspan
         sodipodi:role="line"
         id="tspan6674-15-4"
         x="153.67349"
         y="439.56549"
         style="font-size:15px">0</tspan></text>
    <path
       style="fill:none;fill-rule:evenodd;stroke:#000000;stroke-width:2.061;stroke-linecap:butt;stroke-linejoin:miter;stroke-miterlimit:4;stroke-dasharray:12.366, 2.06099999999999990;stroke-dashoffset:0;stroke-opacity:1;marker-start:url(#Arrow1Mstart);marker-end:url(#marker8538)"
       d="m 216.76785,178.67149 0,239.46422"
       id="path6761"
       inkscape:connector-curvature="0" />
    <circle
       transform="scale(1,-1)"
       id="path6763"
       style="fill:#000000;stroke:#000000;stroke-width:4;stroke-miterlimit:4;stroke-dasharray:none;stroke-opacity:1"
       cx="216.7666"
       cy="-343.58823"
       r="1.875" />
    <path
       style="fill:none;fill-rule:evenodd;stroke:#000000;stroke-width:1.82079732;stroke-linecap:butt;stroke-linejoin:miter;stroke-miterlimit:4;stroke-dasharray:10.92478342, 1.82079724000000010;stroke-dashoffset:0;stroke-opacity:1;marker-end:url(#marker4983)"
       d="m 157.45663,343.57464 52.90688,0"
       id="path6767"
       inkscape:connector-curvature="0" />
    <path
       style="fill:none;fill-rule:evenodd;stroke:#000000;stroke-width:1.80000007;stroke-linecap:butt;stroke-linejoin:miter;stroke-miterlimit:4;stroke-dasharray:none;stroke-opacity:1"
       d="m 157.76786,78.574643 0,-9.999999"
       id="path7680"
       inkscape:connector-curvature="0" />
    <path
       style="fill:none;fill-rule:evenodd;stroke:#000000;stroke-width:1.80000007;stroke-linecap:butt;stroke-linejoin:miter;stroke-miterlimit:4;stroke-dasharray:none;stroke-opacity:1;marker-end:url(#Arrow1Mend)"
       d="m 157.76786,73.574643 38.99999,0"
       id="path7682"
       inkscape:connector-curvature="0" />
    <text
       xml:space="preserve"
       style="font-style:normal;font-weight:normal;font-size:40px;line-height:125%;font-family:sans-serif;letter-spacing:0px;word-spacing:0px;fill:#000000;fill-opacity:1;stroke:none;stroke-width:1px;stroke-linecap:butt;stroke-linejoin:miter;stroke-opacity:1"
       x="189.46173"
       y="61.778721"
       id="text7762"
       sodipodi:linespacing="125%"><tspan
         sodipodi:role="line"
         id="tspan7764"
         x="189.46173"
         y="61.778721"
         style="font-style:normal;font-variant:normal;font-weight:normal;font-stretch:normal;font-size:15px;font-family:'Arial Rounded MT Bold';-inkscape-font-specification:'Arial Rounded MT Bold, '">y</tspan></text>
    <text
       xml:space="preserve"
       style="font-style:normal;font-weight:normal;font-size:40px;line-height:125%;font-family:sans-serif;letter-spacing:0px;word-spacing:0px;fill:#000000;fill-opacity:1;stroke:none;stroke-width:1px;stroke-linecap:butt;stroke-linejoin:miter;stroke-opacity:1"
       x="153.40051"
       y="64.595078"
       id="text7762-4"
       sodipodi:linespacing="125%"><tspan
         sodipodi:role="line"
         id="tspan7764-7"
         x="153.40051"
         y="64.595078"
         style="font-style:normal;font-variant:normal;font-weight:normal;font-stretch:normal;font-size:15px;font-family:'Arial Rounded MT Bold';-inkscape-font-specification:'Arial Rounded MT Bold, '">0</tspan></text>
    <path
       style="fill:#ff0000;fill-rule:evenodd;stroke:#ff0000;stroke-width:2;stroke-linecap:round;stroke-linejoin:miter;stroke-opacity:1;stroke-miterlimit:4;stroke-dasharray:none;marker-start:url(#marker8590)"
       d="m 90,152.3622 -30,0"
       id="path7936"
       inkscape:connector-curvature="0" />
    <path
       style="fill:#ff0000;fill-rule:evenodd;stroke:#ff0000;stroke-width:2;stroke-linecap:round;stroke-linejoin:miter;stroke-opacity:1;stroke-miterlimit:4;stroke-dasharray:none"
       d="m 60,102.3622 0,50"
       id="path7938"
       inkscape:connector-curvature="0" />
    <text
       xml:space="preserve"
       style="font-style:normal;font-weight:normal;font-size:40px;line-height:125%;font-family:sans-serif;letter-spacing:0px;word-spacing:0px;fill:#000000;fill-opacity:1;stroke:none;stroke-width:1px;stroke-linecap:butt;stroke-linejoin:miter;stroke-opacity:1"
       x="63"
       y="114.3622"
       id="text8648"
       sodipodi:linespacing="125%"><tspan
         sodipodi:role="line"
         id="tspan8650"
         x="63"
         y="114.3622"
         style="font-style:normal;font-variant:normal;font-weight:normal;font-stretch:normal;font-size:15px;font-family:'Arial Rounded MT Bold';-inkscape-font-specification:'Arial Rounded MT Bold, ';fill:#ff0000">Rin</tspan></text>
  </g>
</svg>
